<svg xmlns="http://www.w3.org/2000/svg" aria-hidden="true" style="position:absolute;width:0;height:0;overflow:hidden"><defs>
<symbol id="icon-youtube" viewBox="0 0 32 32"><path fill="#fdfdff" d="M20.532 10.5c-.748-.044-2.288-.088-4.62-.088h-.308c-2.244 0-3.74.044-4.488.132-1.012.088-1.716.352-2.112.704-.352.308-.616.88-.704 1.628-.044.484-.088 1.496-.088 3.036v.22c0 1.452.044 2.464.132 2.948.132.704.352 1.232.792 1.54.44.352 1.188.572 2.244.66.748.044 2.288.088 4.62.088h.308c2.244 0 3.74-.044 4.488-.132 1.012-.088 1.716-.352 2.112-.704.352-.308.616-.88.704-1.628.044-.484.088-1.496.088-3.036v-.22c0-1.452-.044-2.464-.132-2.948-.132-.704-.352-1.232-.792-1.54-.44-.352-1.188-.572-2.244-.66zm-1.716 5.412-4.84 2.904v-5.808l4.84 2.904z" style="fill:var(--color1, #fdfdff)"/><path fill="none" stroke="#fdfdff" stroke-width=".8" d="M4.8.4h22.4a4.4 4.4 0 0 1 4.4 4.4v22.4a4.4 4.4 0 0 1-4.4 4.4H4.8a4.4 4.4 0 0 1-4.4-4.4V4.8A4.4 4.4 0 0 1 4.8.4z" style="stroke:var(--color1, #fdfdff)"/></symbol>
<symbol id="icon-mob-menu" viewBox="0 0 32 32"><path stroke-linecap="round" stroke-linejoin="round" stroke-width="2" d="M28 13.334H4M28 8H4M28 18.666H4M28 24H4"/></symbol>
<symbol id="icon-cocktail" viewBox="0 0 32 32"><path fill="#7e8fdd" d="M28.356 2.986c-.062-.039-.122-.069-.183-.1a5.112 5.112 0 0 0-2.406-.593h-.009c-.917.001-1.817.244-2.612.703s-1.456 1.12-1.919 1.915l-.014.025a5.106 5.106 0 0 0-.665 2.123l-.001.02H9.576L8.349 4.103c-.276-.674-.781-1.226-1.425-1.559s-1.385-.423-2.09-.256l.021-.005-3.71.848.23 1.018 3.71-.848c.462-.106.945-.045 1.366.173s.752.578.935 1.017l.005.014L8.456 7.08H1.489l11.649 11.716v8.578c-2.705.193-4.571 1.094-4.571 2.213v.208h11.227v-.208c0-1.117-1.87-2.023-4.571-2.213v-8.578l7.181-7.222c.225.192.477.37.742.526l.025.014c1.201.687 2.623.868 3.957.503s2.469-1.245 3.158-2.449c.69-1.204.878-2.634.523-3.976s-1.224-2.49-2.417-3.19l-.025-.014-.008-.002zm1.142 4.031-2.85.008 1.418-2.483a3.804 3.804 0 0 1 1.43 2.454l.002.021zm-2.329-2.999-1.418 2.49-1.433-2.475c.458-.19.949-.287 1.445-.285.506 0 .99.099 1.432.279l-.025-.009zm-4.698 1.643c.249-.436.567-.802.943-1.098l.008-.006 1.433 2.475-2.843.008c.064-.516.226-.983.469-1.398l-.009.017v.001zM4.982 8.536h4.07l.56 1.364H6.34L4.982 8.536zm17.021 1.365h-.929v.007H10.728l-.56-1.364H23.35l-1.346 1.357zm2.337 1.179 1.418-2.49 1.433 2.475a3.694 3.694 0 0 1-1.442.287c-.507 0-.992-.1-1.434-.283l.025.01zm4.699-1.634a3.79 3.79 0 0 1-.942 1.098l-.008.006-1.433-2.475 2.843-.007a3.855 3.855 0 0 1-.47 1.395l.01-.018-.001.001z" style="fill:var(--color2, #7e8fdd)"/></symbol>
<symbol id="icon-chevron-down" viewBox="0 0 32 32"><path fill="none" stroke-linecap="round" stroke-linejoin="round" stroke-width="2.667" d="m7.999 12 8 8 8-8"/></symbol>
<symbol id="icon-remove" viewBox="0 0 32 32"><path fill="none" stroke="#fdfdff" stroke-linecap="round" stroke-linejoin="round" stroke-width="2.909" d="M21.818 7.273V6.109c0-1.629 0-2.444-.317-3.066a2.913 2.913 0 0 0-1.271-1.271c-.622-.317-1.437-.317-3.066-.317h-2.327c-1.629 0-2.444 0-3.066.317A2.913 2.913 0 0 0 10.5 3.043c-.317.622-.317 1.437-.317 3.066v1.164m2.908 8v7.273m5.818-7.273v7.273m-16-15.273h26.182m-2.909 0v16.291c0 2.444 0 3.666-.476 4.599a4.36 4.36 0 0 1-1.907 1.907c-.934.476-2.155.476-4.599.476h-6.4c-2.444 0-3.666 0-4.599-.476a4.36 4.36 0 0 1-1.907-1.907c-.476-.934-.476-2.155-.476-4.599V7.273" style="stroke:var(--color1, #fdfdff)"/></symbol>
<symbol id="icon-heart" viewBox="0 0 32 32"><path  stroke="#fdfdff" stroke-linecap="round" stroke-linejoin="round" stroke-width="2.667" d="M27.787 6.146a7.326 7.326 0 0 0-10.373 0l-1.413 1.413-1.413-1.413a7.333 7.333 0 0 0-10.374 0 7.333 7.333 0 0 0 0 10.374l11.787 11.787L27.788 16.52a7.345 7.345 0 0 0 2.15-5.187 7.33 7.33 0 0 0-2.15-5.187z" style="stroke:var(--color1, #fdfdff)"/></symbol>
<symbol id="icon-facebook-f" viewBox="0 0 32 32"><path fill="#fdfdff" d="M18.425 10.801h1.462V8.328a20.221 20.221 0 0 0-2.131-.109c-2.116 0-3.562 1.291-3.562 3.656v2.038h-2.388v2.769h2.388v7.093h2.862v-7.093h2.38l.358-2.769h-2.738v-1.766c0-.817.218-1.346 1.369-1.346z" style="fill:var(--color1, #fdfdff)"/><path fill="none" stroke="#fdfdff" stroke-width=".8" d="M4.8.4h22.4a4.4 4.4 0 0 1 4.4 4.4v22.4a4.4 4.4 0 0 1-4.4 4.4H4.8a4.4 4.4 0 0 1-4.4-4.4V4.8A4.4 4.4 0 0 1 4.8.4z" style="stroke:var(--color1, #fdfdff)"/></symbol>
<symbol id="icon-instagram" viewBox="0 0 32 32"><path fill="#fdfdff" d="M19.991 11.115a.902.902 0 0 0-.828.553.892.892 0 0 0 .194.977.892.892 0 0 0 .977.194.895.895 0 0 0-.343-1.724zm3.435 1.807a5.646 5.646 0 0 0-.343-1.814 3.69 3.69 0 0 0-.866-1.322 3.518 3.518 0 0 0-1.322-.859 5.462 5.462 0 0 0-1.814-.351c-.791-.045-1.045-.045-3.076-.045s-2.285 0-3.076.045a5.462 5.462 0 0 0-1.814.351 3.57 3.57 0 0 0-1.322.859c-.383.37-.676.822-.859 1.322a5.462 5.462 0 0 0-.351 1.814c-.045.791-.045 1.045-.045 3.076s0 2.285.045 3.076c.013.62.132 1.234.351 1.814.182.5.476.952.859 1.322a3.57 3.57 0 0 0 1.322.859c.58.219 1.194.338 1.814.351.791.045 1.045.045 3.076.045s2.285 0 3.076-.045a5.462 5.462 0 0 0 1.814-.351c.5-.182.952-.476 1.322-.859.382-.371.678-.823.866-1.322a5.65 5.65 0 0 0 .343-1.814c0-.791.045-1.045.045-3.076s0-2.285-.045-3.076zm-1.344 6.063a4.167 4.167 0 0 1-.254 1.389 2.286 2.286 0 0 1-.56.859 2.373 2.373 0 0 1-.859.56 4.193 4.193 0 0 1-1.389.254c-.747.037-1.023.045-2.987.045s-2.24 0-2.987-.045a4.3 4.3 0 0 1-1.449-.224 2.433 2.433 0 0 1-.821-.56 2.245 2.245 0 0 1-.553-.859 4.164 4.164 0 0 1-.299-1.419c0-.747-.045-1.023-.045-2.987s0-2.24.045-2.987a4.14 4.14 0 0 1 .261-1.419 2.24 2.24 0 0 1 .59-.821c.227-.257.507-.461.821-.597a4.29 4.29 0 0 1 1.419-.254c.747 0 1.023-.045 2.987-.045s2.24 0 2.987.045c.474.005.944.091 1.389.254.339.126.644.331.889.597.245.229.436.51.56.821.166.455.252.935.254 1.419.037.747.045 1.023.045 2.987s-.007 2.24-.045 2.987zm-6.078-6.817a3.826 3.826 0 0 0-3.534 2.37 3.824 3.824 0 0 0 .835 4.171 3.83 3.83 0 0 0 6.246-4.18 3.831 3.831 0 0 0-3.547-2.362zm0 6.316a2.487 2.487 0 1 1 .003-4.975 2.487 2.487 0 0 1-.004 4.976z" style="fill:var(--color1, #fdfdff)"/><path fill="none" stroke="#fdfdff" stroke-width=".8" d="M4.8.4h22.4a4.4 4.4 0 0 1 4.4 4.4v22.4a4.4 4.4 0 0 1-4.4 4.4H4.8a4.4 4.4 0 0 1-4.4-4.4V4.8A4.4 4.4 0 0 1 4.8.4z" style="stroke:var(--color1, #fdfdff)"/></symbol>
<symbol id="icon-search" viewBox="0 0 32 32"><path  d="m29.092 31.514-6.85-6.862c-1.077.935-2.334 1.663-3.77 2.185s-2.962.782-4.578.782c-3.877 0-7.163-1.349-9.855-4.046S0 17.621 0 13.809c0-3.812 1.346-7.067 4.039-9.764S9.999-.001 13.84-.001c3.806 0 7.046 1.349 9.721 4.046s4.012 5.952 4.012 9.764c0 1.546-.251 3.039-.754 4.477s-1.257 2.787-2.262 4.046l6.958 6.862c.323.288.485.656.485 1.106s-.18.854-.539 1.214c-.323.324-.718.486-1.185.486s-.862-.162-1.185-.486zM13.84 24.383c2.908 0 5.385-1.034 7.432-3.102s3.07-4.558 3.07-7.471-1.023-5.403-3.07-7.471c-2.046-2.068-4.524-3.102-7.432-3.102-2.944 0-5.448 1.034-7.513 3.102S3.23 10.897 3.23 13.81c0 2.913 1.032 5.403 3.097 7.471s4.569 3.102 7.513 3.102z" /></symbol>
<symbol id="icon-arrow_left" viewBox="0 0 32 32"><path d="m14.545 16.667 6.788 6.741-1.939 1.926-8.727-8.667L19.394 8l1.939 1.926-6.788 6.741z"/></symbol>
<symbol id="icon-arrow_right" viewBox="0 0 32 32"><path fill="#7e8fdd" d="m17.455 16.667-6.788 6.741 1.939 1.926 8.728-8.667L12.606 8l-1.939 1.926 6.788 6.741z" style="fill:var(--color2, #7e8fdd)"/></symbol>
<symbol id="icon-close" viewBox="0 0 32 32"><path stroke-linecap="round" stroke-linejoin="round" stroke-width="2.667" d="M24 8 8 24M8 8l16 16"/></symbol>
<symbol id="icon-heart_filling" viewBox="0 0 32 32"><path fill="#fdfdff" stroke="#fdfdff" stroke-linecap="round" stroke-linejoin="round" stroke-width="2.667" d="M27.787 6.146a7.326 7.326 0 0 0-10.373 0l-1.413 1.413-1.413-1.413a7.333 7.333 0 0 0-10.374 0 7.333 7.333 0 0 0 0 10.374l11.787 11.787L27.788 16.52a7.345 7.345 0 0 0 2.15-5.187 7.33 7.33 0 0 0-2.15-5.187z" style="fill:var(--color1, #fdfdff);stroke:var(--color1, #fdfdff)"/></symbol>
<symbol id="icon-star" viewBox="0 0 32 32"><path fill="#fdfdff" d="M10.093 28.737a17.388 17.388 0 0 1 18.645 5.7 17.387 17.387 0 0 1 5.7-18.645 17.388 17.388 0 0 1-18.645-5.7 17.387 17.387 0 0 1-5.7 18.645zm-2.504.993c7.616-4.407 10.533-13.949 6.684-21.861l.528-.281c4.407 7.616 13.949 10.533 21.861 6.684l.281.528c-7.616 4.407-10.533 13.949-6.683 21.861l-.528.281c-4.407-7.616-13.949-10.533-21.861-6.684l-.281-.528z" opacity=".2" style="fill:var(--color1, #fdfdff)"/><path fill="#fdfdff" d="M29.389 31.518c.407 1.446.618 2.634.63 3.495.006.431-.038.748-.111.962-.071.211-.152.276-.194.298s-.141.053-.355-.006c-.218-.06-.505-.2-.86-.446-.707-.492-1.575-1.33-2.546-2.477-1.936-2.285-4.199-5.693-6.319-9.681s-3.68-7.77-4.492-10.652c-.407-1.446-.618-2.634-.63-3.495-.006-.431.038-.748.111-.962.071-.211.152-.276.194-.298s.141-.053.356.006c.218.06.505.199.86.446.707.492 1.575 1.33 2.546 2.477 1.936 2.285 4.199 5.693 6.319 9.681s3.68 7.77 4.492 10.652zm.605 5.283c1.745-.928-.3-8.188-4.569-16.216S16.281 6.801 14.536 7.729c-1.745.928.3 8.188 4.569 16.216s9.144 13.784 10.889 12.856z" opacity=".2" style="fill:var(--color1, #fdfdff)"/><path fill="#fdfdff" d="M13.012 29.389c-1.446.407-2.634.618-3.495.63-.431.006-.748-.039-.962-.111-.211-.071-.275-.152-.298-.194s-.053-.141.006-.355c.06-.218.199-.505.446-.86.492-.707 1.33-1.575 2.477-2.546 2.285-1.936 5.693-4.199 9.681-6.319s7.77-3.68 10.652-4.492c1.446-.407 2.634-.618 3.495-.63.431-.006.748.039.962.111.211.071.276.152.298.194s.053.141-.006.355c-.06.218-.2.505-.446.86-.492.707-1.33 1.575-2.477 2.546-2.285 1.936-5.693 4.199-9.681 6.319s-7.77 3.68-10.652 4.492zm-5.283.605c.928 1.745 8.188-.3 16.216-4.569s13.784-9.144 12.856-10.889c-.928-1.745-8.188.3-16.216 4.569S6.801 28.249 7.729 29.994z" opacity=".2" style="fill:var(--color1, #fdfdff)"/></symbol>
<symbol id="icon-star1" viewBox="0 0 31 32">
<path d="M7.006 20.253c4.706-1.455 9.855 0.119 12.943 3.957-1.455-4.706 0.119-9.855 3.957-12.943-4.706 1.455-9.855-0.119-12.943-3.957 1.455 4.706-0.119 9.855-3.957 12.943zM5.268 20.942c5.287-3.059 7.312-9.683 4.64-15.176l0.367-0.195c3.059 5.287 9.683 7.312 15.175 4.64l0.195 0.366c-5.287 3.059-7.312 9.683-4.64 15.176l-0.366 0.195c-3.059-5.287-9.683-7.312-15.176-4.64l-0.195-0.366z"></path>
<path d="M20.402 22.183c0.283 1.004 0.429 1.829 0.437 2.427 0.004 0.3-0.027 0.519-0.077 0.668-0.050 0.146-0.106 0.191-0.135 0.207s-0.098 0.037-0.247-0.004c-0.152-0.041-0.351-0.138-0.597-0.309-0.491-0.341-1.093-0.923-1.767-1.719-1.344-1.586-2.915-3.952-4.387-6.72s-2.555-5.394-3.118-7.395c-0.283-1.004-0.429-1.829-0.437-2.426-0.004-0.3 0.027-0.519 0.077-0.668 0.050-0.146 0.106-0.191 0.135-0.207s0.098-0.037 0.247 0.004c0.152 0.041 0.351 0.138 0.597 0.309 0.491 0.341 1.093 0.923 1.767 1.719 1.344 1.586 2.915 3.952 4.387 6.72s2.555 5.394 3.118 7.395zM20.822 25.851c1.212-0.644-0.208-5.684-3.172-11.257s-6.348-9.569-7.559-8.924 0.209 5.684 3.172 11.257c2.963 5.573 6.348 9.569 7.559 8.924z"></path>
<path d="M9.033 20.706c-1.004 0.283-1.829 0.429-2.426 0.437-0.3 0.004-0.519-0.027-0.668-0.077-0.146-0.050-0.191-0.106-0.207-0.135s-0.037-0.098 0.004-0.247c0.041-0.151 0.138-0.351 0.309-0.597 0.341-0.491 0.923-1.093 1.719-1.767 1.586-1.344 3.952-2.915 6.72-4.387s5.394-2.555 7.395-3.118c1.004-0.283 1.829-0.429 2.426-0.437 0.3-0.004 0.519 0.027 0.668 0.077 0.146 0.050 0.191 0.106 0.207 0.135s0.037 0.098-0.004 0.247c-0.041 0.152-0.138 0.351-0.309 0.597-0.341 0.491-0.923 1.093-1.719 1.767-1.586 1.344-3.952 2.915-6.72 4.387s-5.394 2.555-7.395 3.118zM5.365 21.126c0.644 1.212 5.684-0.209 11.257-3.172s9.569-6.348 8.924-7.559c-0.644-1.212-5.684 0.208-11.257 3.172s-9.569 6.348-8.924 7.559z"></path>
</symbol>
<symbol id="icon-ellipse" viewBox="0 0 30 32">
<path d="M30.316 15.275c0 8.371-6.786 15.158-15.158 15.158s-15.158-6.786-15.158-15.158c0-8.371 6.786-15.158 15.158-15.158s15.158 6.786 15.158 15.158z"></path>
</symbol>
</defs>
</svg>

