<?xml version="1.0" standalone="no"?>
<!DOCTYPE svg PUBLIC "-//W3C//DTD SVG 20010904//EN"
 "http://www.w3.org/TR/2001/REC-SVG-20010904/DTD/svg10.dtd">
<svg version="1.0" xmlns="http://www.w3.org/2000/svg"
 width="928.000000pt" height="928.000000pt" viewBox="0 0 928.000000 928.000000"
 preserveAspectRatio="xMidYMid meet">
<metadata>
Created by potrace 1.14, written by Peter Selinger 2001-2017
</metadata>
<g transform="translate(0.000000,928.000000) scale(0.100000,-0.100000)"
fill="#000000" stroke="none">
<path d="M1499 8636 c-2 -2 -22 -6 -44 -9 -22 -3 -80 -16 -130 -28 -49 -11
-101 -23 -115 -25 -14 -3 -38 -9 -55 -14 -16 -5 -43 -11 -60 -14 -16 -3 -86
-19 -155 -35 -69 -16 -128 -27 -132 -24 -5 2 -8 0 -8 -5 0 -5 -6 -9 -12 -9 -7
0 -47 -8 -88 -17 -41 -10 -82 -19 -90 -21 -8 -2 -35 -8 -60 -14 -25 -5 -59
-12 -77 -16 -18 -3 -44 -10 -58 -15 -14 -5 -29 -9 -33 -8 -4 1 -17 -2 -30 -6
-17 -5 -22 -13 -17 -24 4 -10 9 -26 11 -37 2 -11 6 -30 8 -43 3 -13 8 -33 12
-45 4 -12 8 -29 9 -37 0 -8 5 -37 9 -63 l8 -48 42 6 c22 4 59 11 81 17 22 5
47 11 55 13 8 2 47 11 85 20 39 9 79 18 90 21 63 12 185 40 195 43 10 4 246
59 285 67 11 2 31 6 45 9 14 4 34 8 45 10 11 3 30 7 43 10 12 3 31 7 43 10 11
2 28 6 37 9 59 19 201 26 269 14 106 -19 222 -80 299 -156 79 -78 113 -137
193 -334 6 -16 15 -38 21 -50 65 -151 228 -554 224 -557 -2 -3 -453 -6 -1002
-6 -548 -1 -999 -3 -1001 -4 -2 0 165 -170 370 -376 206 -207 643 -647 972
-978 329 -331 920 -925 1313 -1320 l714 -718 0 -1244 0 -1245 -22 -1 c-192 -8
-384 -43 -729 -133 -9 -2 -47 -17 -85 -34 -38 -16 -72 -30 -77 -30 -29 -6
-191 -100 -237 -139 -22 -19 -86 -82 -107 -106 -38 -46 -66 -130 -68 -209 l-2
-48 1630 0 1630 0 -5 70 c-13 176 -149 314 -438 444 -59 26 -271 93 -350 110
-141 31 -288 55 -370 62 -82 6 -153 14 -159 19 -4 2 -6 561 -6 1244 l0 1240
1039 1045 c572 576 1042 1046 1045 1046 4 0 18 -11 33 -25 100 -92 374 -233
528 -271 8 -2 35 -9 60 -15 25 -6 54 -13 65 -14 11 -2 35 -6 54 -10 81 -15
317 -21 381 -11 14 3 45 7 70 10 57 8 84 13 190 41 36 9 69 20 75 23 5 4 12 7
15 7 78 9 354 166 474 270 46 40 136 126 136 130 0 2 10 15 23 28 37 39 77 86
77 92 0 3 8 15 18 26 11 10 25 32 33 47 8 15 17 29 20 32 13 10 99 179 99 193
0 8 7 20 15 27 8 7 15 22 15 34 0 12 4 26 8 31 8 10 29 67 37 102 36 146 40
166 52 268 6 57 10 265 4 270 -2 3 -5 24 -7 49 -10 153 -66 351 -144 506 -61
121 -116 212 -131 218 -5 2 -9 8 -9 14 0 30 -220 255 -310 318 -19 13 -37 27
-40 30 -20 22 -268 160 -289 160 -5 0 -26 8 -47 17 -51 22 -175 59 -229 68
-128 21 -178 27 -271 28 -102 1 -226 -7 -284 -18 -137 -26 -212 -49 -337 -100
-79 -33 -192 -92 -203 -105 -3 -4 -12 -9 -20 -12 -33 -12 -184 -134 -258 -207
-74 -74 -103 -107 -147 -167 -11 -15 -26 -33 -32 -40 -7 -7 -13 -15 -13 -18 0
-8 -65 -111 -73 -114 -4 -2 -7 -9 -7 -15 0 -7 -14 -39 -31 -72 -29 -57 -76
-178 -84 -219 -3 -10 -9 -33 -14 -50 -6 -17 -12 -44 -15 -61 -2 -16 -5 -30 -6
-30 -3 0 -12 -80 -14 -115 0 -19 -6 -37 -13 -40 -15 -6 -3171 -5 -3176 1 -2 2
-39 90 -81 194 -101 245 -99 241 -127 304 -13 30 -24 57 -25 60 -1 6 -8 25
-39 96 -9 22 -18 45 -19 50 -2 6 -11 28 -21 50 -11 22 -19 42 -20 45 -12 41
-77 174 -87 178 -4 2 -8 9 -8 14 0 16 -77 114 -130 166 -54 53 -150 123 -205
149 -22 10 -42 21 -45 24 -4 5 -129 49 -155 55 -84 18 -303 32 -316 20z m6098
-450 c34 -3 67 -8 75 -11 7 -2 27 -7 43 -10 35 -7 35 -7 95 -25 50 -15 75 -30
63 -39 -4 -3 -17 -22 -28 -43 -36 -65 -124 -222 -154 -273 -17 -27 -36 -61
-43 -75 -17 -30 -139 -244 -153 -268 -26 -43 -26 -43 -46 -18 -10 13 -19 27
-19 30 0 3 -32 60 -71 128 -40 67 -80 137 -90 155 -53 93 -128 223 -145 250
-8 13 -13 25 -12 27 2 2 -4 12 -13 22 -21 24 -54 88 -42 81 5 -3 20 0 34 7 23
12 30 15 54 21 12 4 63 15 70 16 2 0 19 5 37 10 18 5 67 12 108 15 41 3 76 7
77 8 3 2 97 -2 160 -8z m660 -333 c152 -155 267 -384 289 -573 l4 -35 -402 1
c-222 0 -407 1 -411 2 -5 1 1 15 12 31 11 15 25 39 31 52 6 13 16 33 23 44 12
20 59 101 95 165 120 211 174 306 184 317 6 7 7 13 4 13 -4 0 -2 6 4 13 6 6
20 27 31 46 20 33 20 33 42 15 12 -10 54 -51 94 -91z m-1420 30 c21 -38 43
-77 50 -88 7 -11 16 -28 19 -37 3 -10 10 -18 14 -18 4 0 10 -8 13 -17 3 -10
19 -40 36 -68 16 -27 38 -66 48 -85 11 -19 54 -95 97 -168 42 -73 80 -140 83
-148 4 -11 -7 -14 -58 -14 -35 0 -72 0 -81 0 -10 -1 -39 0 -64 0 -25 1 -48 -1
-51 -3 -2 -3 -18 -1 -34 3 -16 5 -29 6 -29 2 0 -4 -28 -6 -62 -4 -35 1 -90 2
-123 1 -33 -1 -78 -1 -100 0 -47 2 -48 2 -100 0 -22 0 -56 0 -76 0 l-37 1 13
68 c19 99 61 216 107 301 42 79 78 134 91 139 4 2 7 8 7 14 0 14 172 188 187
188 6 0 28 -30 50 -67z m1543 -943 c84 3 156 2 162 -1 10 -6 1 -89 -14 -129
-5 -14 -9 -25 -8 -25 2 0 -6 -23 -31 -95 -25 -71 -85 -187 -121 -235 -47 -62
-126 -150 -169 -188 l-53 -47 -24 43 c-14 23 -44 75 -68 116 -24 40 -44 77
-44 81 0 4 -7 13 -15 20 -8 7 -15 21 -15 31 0 11 -4 19 -8 19 -5 0 -14 10 -20
23 -14 27 -57 102 -128 222 -29 51 -54 98 -54 104 0 6 -4 11 -8 11 -5 0 -14
11 -20 24 l-11 24 236 0 c129 1 238 3 241 7 3 3 9 2 13 -2 4 -5 76 -6 159 -3z
m-5747 -160 c7 -14 30 -68 51 -120 55 -134 75 -182 86 -202 19 -34 12 -49 -22
-47 -18 0 -231 0 -472 0 l-439 -1 -193 194 c-106 107 -191 195 -189 197 2 2
265 4 584 4 l581 0 13 -25z m384 18 c-3 4 8 7 24 7 16 0 29 -4 29 -9 0 -5 6
-4 13 1 6 5 46 7 87 6 95 -4 72 -4 238 -1 78 2 142 -1 142 -6 0 -5 6 -4 13 1
6 5 46 7 87 6 95 -4 72 -4 238 -1 78 2 142 -1 142 -6 0 -5 6 -4 13 1 6 5 46 7
87 6 95 -4 72 -4 238 -1 78 2 142 -1 142 -6 0 -5 6 -4 13 1 6 5 46 7 87 6 95
-4 72 -4 238 -1 78 2 142 -1 142 -6 0 -5 6 -4 13 1 6 5 46 7 87 6 95 -4 72 -4
238 -1 78 2 142 -1 142 -6 0 -5 6 -4 13 1 6 5 46 7 87 6 95 -4 72 -4 238 -1
78 2 142 -1 142 -6 0 -5 6 -4 13 1 6 5 46 7 87 6 95 -4 72 -4 238 -1 78 2 142
-1 142 -6 0 -5 6 -4 13 1 12 9 303 10 313 1 3 -3 -81 -92 -185 -198 l-190
-193 -1632 -1 -1633 0 -18 32 c-10 18 -17 33 -17 35 1 4 -13 41 -26 72 -17 38
-32 77 -35 90 -1 6 -6 16 -12 23 -6 6 -7 12 -2 12 5 0 4 4 -1 8 -6 4 -21 33
-32 64 -23 61 -18 73 25 57 13 -5 21 -6 19 -1z m4477 -48 c9 -16 23 -43 32
-60 8 -16 20 -32 25 -35 5 -4 7 -11 4 -16 -4 -5 -1 -9 4 -9 6 0 11 -7 11 -15
0 -8 4 -15 8 -15 4 0 13 -12 19 -27 12 -29 54 -104 63 -113 3 -3 11 -16 18
-29 8 -13 23 -40 34 -60 25 -43 109 -189 123 -212 33 -54 45 -81 40 -89 -6 -9
-112 -45 -164 -55 -35 -7 -91 -16 -121 -21 -37 -5 -210 -5 -245 0 -67 10 -102
17 -145 27 -43 10 -53 14 -112 37 l-28 11 29 49 c16 27 43 74 59 103 17 30 66
117 110 194 43 77 108 191 143 252 35 62 67 113 71 113 3 0 14 -13 22 -30z"/>
</g>
</svg>
